<svg width="18" height="26" viewBox="0 0 18 26" fill="none" xmlns="http://www.w3.org/2000/svg">
    <path
        d="M5.66489 17.3969C5.35551 17.3969 5.1047 17.1461 5.1047 16.8367C5.1047 15.553 5.20815 14.5299 5.41503 13.7674C5.62192 13.0049 5.92826 12.3942 6.33407 11.9351C6.73989 11.4683 7.2372 11.0482 7.82603 10.6747C8.33528 10.3479 8.78884 10.0328 9.18669 9.72938C9.5925 9.42595 9.91078 9.10307 10.1415 8.76073C10.3803 8.4184 10.4996 8.02938 10.4996 7.59368C10.4996 7.20466 10.4041 6.86233 10.2132 6.56668C10.0222 6.27102 9.76358 6.0415 9.43734 5.87812C9.1111 5.71473 8.74905 5.63303 8.3512 5.63303C7.92151 5.63303 7.52366 5.73029 7.15763 5.9248C6.79956 6.1193 6.50913 6.38773 6.28633 6.73006C6.20737 6.85588 6.14292 6.98905 6.09298 7.12958C5.94407 7.54862 5.60355 7.92045 5.15883 7.92045H4.25868C1.83216 7.92045 -0.386129 5.71248 1.04659 3.75408C1.82638 2.68039 2.86081 1.89458 4.14985 1.39664C5.4389 0.890915 6.85526 0.638054 8.39894 0.638054C10.1018 0.638054 11.6216 0.883135 12.9583 1.3733C14.2951 1.85568 15.3495 2.58703 16.1213 3.56735C16.8931 4.5399 17.279 5.75752 17.279 7.22022C17.279 8.16164 17.1119 8.99025 16.7778 9.70604C16.4515 10.4141 15.994 11.0404 15.4052 11.585C14.8243 12.1218 14.144 12.612 13.3642 13.0555C12.7912 13.3823 12.3098 13.7207 11.9199 14.0708C11.5301 14.4131 11.2356 14.8061 11.0367 15.2495C10.8378 15.6852 10.7383 16.2143 10.7383 16.8367C10.7383 17.1461 10.4875 17.3969 10.1781 17.3969H5.66489ZM8.017 25.2395C7.09398 25.2395 6.30225 24.9244 5.64181 24.2942C4.98933 23.6562 4.66707 22.8821 4.67502 21.9718C4.66707 21.0848 4.98933 20.3262 5.64181 19.696C6.30225 19.0658 7.09398 18.7507 8.017 18.7507C8.89228 18.7507 9.66411 19.0658 10.3325 19.696C11.0089 20.3262 11.351 21.0848 11.359 21.9718C11.351 22.5786 11.1879 23.131 10.8696 23.629C10.5593 24.1191 10.1535 24.512 9.65218 24.8077C9.15088 25.0956 8.60582 25.2395 8.017 25.2395Z"
        fill="#002162"></path>
</svg>