<svg width="29" height="29" viewBox="0 0 29 29" fill="none" xmlns="http://www.w3.org/2000/svg">
    <path fill-rule="evenodd" clip-rule="evenodd"
        d="M20.9667 0.0440607C20.7224 0.118397 20.4909 0.258281 20.3356 0.425495C20.2532 0.514007 19.1707 1.9133 17.9299 3.53498C16.689 5.15665 15.445 6.77294 15.1653 7.12676C14.7719 7.62438 14.6578 7.80826 14.6616 7.93874C14.6671 8.13436 14.7573 8.26109 14.9407 8.33077C15.2499 8.44837 15.2057 8.49923 18.2126 4.56826C19.2079 3.26706 20.0371 2.20254 20.0552 2.20265C20.0734 2.20271 20.1584 2.40133 20.2441 2.64402C20.6268 3.72793 21.4772 4.92457 22.826 6.27737C23.366 6.81893 23.8001 7.26761 23.7907 7.27447C23.7813 7.28139 22.6765 8.1254 21.3356 9.15012C18.595 11.2445 17.3744 12.1989 16.6347 12.8257L16.1294 13.2538L15.8266 12.9772C15.4594 12.6415 15.0003 12.4158 14.5164 12.3329C14.1565 12.2712 14.1539 12.2694 13.8562 11.8721C13.6918 11.6527 13.46 11.3258 13.3411 11.1456L13.1248 10.818L13.2641 10.6637C13.3408 10.5788 13.5614 10.3365 13.7543 10.1253C13.9473 9.91412 14.1212 9.6779 14.1406 9.60044C14.1829 9.43159 14.0426 9.1914 13.8628 9.12488C13.6497 9.04601 13.4665 9.16304 13.0284 9.65754C12.6134 10.126 12.5987 10.1363 12.3426 10.1385C11.9945 10.1415 11.8603 10.2572 11.5866 10.7901C11.32 11.3094 11.1126 11.5046 10.5598 11.7565C10.0898 11.9707 9.9333 12.1736 9.98626 12.4999C10.014 12.6711 9.98688 12.7145 9.66422 13.0157C8.54724 14.058 7.48978 14.9077 3.78794 17.7376C0.355179 20.3617 0.304265 20.4032 0.14988 20.7059C-0.435117 21.8527 0.73499 24.2434 2.91628 26.3581C4.22632 27.6281 5.4669 28.458 6.65113 28.8566C7.20318 29.0424 7.96694 29.0485 8.30072 28.8699C8.60359 28.7078 8.58352 28.732 10.5632 26.1428C11.711 24.6415 12.2697 23.9529 12.2813 24.0251C12.3089 24.1967 12.5569 24.3918 12.7474 24.3918C12.867 24.3918 13.0897 24.2759 13.4733 24.0139C13.7777 23.8059 14.0421 23.6358 14.0608 23.6358C14.0795 23.6358 14.3207 23.7911 14.5969 23.9809C15.2364 24.4205 15.3106 24.4493 15.5476 24.3503C15.7919 24.2482 15.8636 24.0387 15.8672 23.4147L15.8701 22.9271L16.1274 23.4374C16.4177 24.013 16.4906 24.0894 16.7489 24.0894C16.9703 24.0894 17.1005 23.9481 17.4718 23.3043C17.6161 23.0541 17.7588 22.8342 17.7891 22.8155C17.8193 22.7968 18.0872 22.8206 18.3844 22.8684C18.6816 22.9163 19.0099 22.9554 19.1139 22.9554C19.3521 22.9554 19.5496 22.759 19.5496 22.5221C19.5496 22.4179 19.1517 21.5152 18.5291 20.2069C17.9678 19.0275 17.5086 18.0307 17.5086 17.9916C17.5086 17.8752 17.8846 17.5807 18.3008 17.371C18.7617 17.1389 18.8693 17.0062 18.8693 16.6697C18.8693 16.4354 18.8916 16.3992 19.2236 16.095C20.5481 14.8818 21.4854 14.1287 25.3611 11.164C27.0449 9.8759 28.4952 8.75513 28.5838 8.67337C29.1115 8.18647 29.1396 7.19798 28.6555 6.14066C28.5799 5.97532 28.5313 5.82676 28.5475 5.81048C28.5988 5.75922 28.4481 5.02017 28.3333 4.75996C28.2094 4.47918 28.0832 4.36158 27.9029 4.35897C27.6983 4.35596 27.5915 4.42242 27.5173 4.59893C27.4563 4.74398 27.4654 4.82608 27.5836 5.19844C27.746 5.70972 27.7129 5.84224 27.3969 5.94651C26.9571 6.09167 25.9324 5.85601 25.0656 5.41034C24.4789 5.10868 24.4975 5.13159 24.6714 4.92491C24.8883 4.66714 24.877 4.38341 24.6382 4.08765C24.5368 3.96217 24.2829 3.64832 24.0739 3.39027C23.4169 2.57915 22.9844 1.57825 23.1983 1.36425C23.279 1.28362 23.32 1.28453 23.6438 1.37406C24.3391 1.5664 25.1009 2.07887 25.9975 2.95741C26.6316 3.57864 26.801 3.6511 27.0462 3.40581C27.3284 3.1236 27.1642 2.84293 26.2161 1.98752C25.6219 1.4514 25.0475 1.05653 24.4668 0.785212C24.0233 0.577967 23.3465 0.404062 23.2399 0.470006C23.2126 0.486846 23.0513 0.437062 22.8815 0.359267C22.2367 0.0640198 21.3701 -0.0786424 20.9667 0.0440607ZM22.1171 0.967963L22.3316 1.04304L21.7769 1.79065C21.4718 2.20185 21.2016 2.53929 21.1765 2.54048C21.0758 2.54536 20.8908 1.98633 20.866 1.60206C20.8374 1.16228 20.8966 0.982252 21.0983 0.895101C21.2545 0.827625 21.8347 0.869131 22.1171 0.967963ZM22.5474 2.54638C22.6557 2.85727 23.1271 3.59718 23.5013 4.04371C23.825 4.4299 23.9163 4.64066 23.7601 4.64066C23.6998 4.64066 22.7467 3.92304 22.2316 3.48978L21.8209 3.14436L21.9501 2.97107C22.0212 2.87581 22.1511 2.70219 22.2387 2.58522C22.3262 2.4683 22.4179 2.37258 22.4424 2.37258C22.4668 2.37258 22.514 2.45078 22.5474 2.54638ZM24.7245 6.17235C25.154 6.38374 25.677 6.60165 25.8868 6.65659C26.0966 6.71159 26.287 6.7726 26.3099 6.79216C26.3329 6.81178 26.173 6.96148 25.9547 7.12495L25.5577 7.42207L25.2042 7.18335C25.0098 7.05209 24.6726 6.80316 24.4549 6.63022C24.0226 6.28695 22.838 5.16164 22.838 5.09428C22.838 5.07126 23.0868 5.21795 23.3908 5.42026C23.6949 5.62257 24.295 5.96103 24.7245 6.17235ZM28.0833 7.08242C28.2017 7.56552 28.17 7.91447 27.9947 8.05639C27.8177 8.19973 27.2692 8.18607 26.8159 8.02708C26.6182 7.95779 26.4644 7.87551 26.4742 7.84433C26.4924 7.78621 27.8831 6.69401 27.9488 6.68624C27.9689 6.68386 28.0294 6.86213 28.0833 7.08242ZM25.8713 8.55208C26.1208 8.67093 26.434 8.80055 26.5674 8.84018C26.7009 8.87982 26.8029 8.93289 26.7942 8.95818C26.7856 8.98347 25.6559 9.86348 24.2838 10.9138C20.9665 13.4529 20.1285 14.1304 18.6201 15.4922L18.1882 15.8822L17.9476 15.7256C17.2513 15.2721 16.7148 14.831 16.7148 14.7119C16.7148 14.6439 16.6808 14.457 16.6392 14.2965L16.5635 14.0048L17.1701 13.4899C18.0039 12.782 18.4807 12.4086 21.7199 9.92637L24.5422 7.7637L24.98 8.04981C25.2207 8.20722 25.6219 8.43323 25.8713 8.55208ZM12.746 11.77C12.9487 12.0715 13.1217 12.3456 13.1304 12.3791C13.1392 12.4127 13.0117 12.5071 12.8469 12.5888C12.4619 12.78 12.1072 13.0887 11.8726 13.4372L11.6863 13.7138L11.375 13.2456C10.8721 12.4891 10.8827 12.549 11.2216 12.3773C11.5975 12.1867 12.0142 11.7957 12.1857 11.4725C12.2599 11.3326 12.3334 11.219 12.349 11.2201C12.3647 11.2212 12.5433 11.4686 12.746 11.77ZM14.893 13.3458C15.97 13.9321 16.1925 15.3694 15.3385 16.2235C14.81 16.752 13.953 16.9059 13.3047 16.5887C12.6485 16.2676 12.2726 15.6756 12.2673 14.9549C12.2644 14.5711 12.2858 14.4815 12.4625 14.1348C12.607 13.8515 12.7381 13.6872 12.9445 13.5311C13.3537 13.2215 13.6013 13.1453 14.1358 13.1646C14.5112 13.1781 14.6427 13.2096 14.893 13.3458ZM10.9459 14.1097C11.2881 14.5904 11.3853 14.77 11.3853 14.9211C11.3853 15.4535 11.631 16.1537 11.9638 16.5699C12.105 16.7464 12.1279 16.8098 12.0788 16.8883C11.9867 17.0358 4.75303 26.484 4.64508 26.5978C4.55703 26.6906 4.52568 26.6741 4.09892 26.3096C2.50211 24.9457 1.1482 23.028 0.886087 21.7589C0.748654 21.0934 0.519316 21.3189 4.22116 18.4804C7.71073 15.8045 8.83333 14.9095 9.7978 14.0336C10.1252 13.7362 10.4186 13.4928 10.4498 13.4926C10.481 13.4925 10.7043 13.7702 10.9459 14.1097ZM13.4907 13.8592C12.7315 14.2434 12.5863 15.2031 13.1953 15.812C13.8107 16.4275 14.7805 16.271 15.1601 15.495C15.691 14.41 14.571 13.3126 13.4907 13.8592ZM14.3335 14.6769C14.5668 14.9102 14.3738 15.3573 14.0398 15.3573C13.8999 15.3573 13.6532 15.1106 13.6532 14.9706C13.6532 14.6366 14.1002 14.4436 14.3335 14.6769ZM17.2251 16.2574C17.8687 16.6968 17.8381 16.6707 17.7469 16.7032C17.7065 16.7176 17.5444 16.8162 17.3868 16.9223C17.2292 17.0283 17.0903 17.1151 17.0781 17.1151C17.032 17.1151 16.5447 16.0165 16.5447 15.9127C16.5447 15.7862 16.5072 15.7672 17.2251 16.2574ZM17.2208 19.433C17.878 20.817 18.4157 21.959 18.4157 21.9708C18.4157 21.9826 18.2435 21.9771 18.033 21.9585C17.5198 21.9132 17.2229 22.0637 16.9593 22.5028L16.7762 22.8077L16.3202 21.8546L15.8643 20.9015V18.9044C15.8643 17.8059 15.8818 16.8898 15.9031 16.8684C15.9244 16.8471 15.9607 16.8493 15.9839 16.8732C16.0069 16.8971 16.5636 18.049 17.2208 19.433ZM13.6793 17.5767C14.0264 17.6407 14.4545 17.6062 14.8863 17.4795L15.0139 17.4421V20.3121C15.0139 21.8907 15.0028 23.1822 14.9893 23.1822C14.9758 23.1822 14.8313 23.0993 14.6683 22.9979C14.2501 22.7379 13.8499 22.7374 13.452 22.9964L13.1713 23.1792L13.1428 21.9191C13.1272 21.2261 13.0935 20.6167 13.0679 20.565C12.9455 20.3175 12.4855 20.3192 12.3526 20.5675C12.3175 20.6332 12.2925 21.0546 12.2925 21.5821V22.4843L10.1476 25.2856C8.17355 27.8638 7.98588 28.0912 7.79169 28.1402C7.51416 28.2102 7.00826 28.1063 6.45269 27.865C6.0329 27.6826 5.31337 27.2692 5.29823 27.2016C5.29392 27.1824 6.85949 25.1177 8.77725 22.6134L12.2641 18.06L12.2809 18.5081C12.2946 18.8726 12.3202 18.9801 12.4184 19.0846C12.59 19.2673 12.8729 19.2576 13.0254 19.0637C13.1305 18.93 13.1429 18.837 13.1429 18.1787C13.1429 17.5412 13.1545 17.4476 13.2298 17.4765C13.2776 17.4949 13.4799 17.54 13.6793 17.5767Z"
        fill="white"></path>
</svg>