<svg class="hero-item_part-4 part-4_class hero-parts" width="52" height="52" viewBox="0 0 52 52"
    fill="none" xmlns="http://www.w3.org/2000/svg">
    <g opacity="0.1" clip-path="url(#clip0_1670_7204_hero)">
        <path
            d="M47.4609 1.703H22.4913C21.869 1.703 21.3645 2.20746 21.3645 2.82984V11.61L22.6142 10.8341C22.9322 10.6365 23.2718 10.5033 23.6181 10.43V3.95667H46.334V20.2083H23.6182V17.5788L21.3645 18.9781V21.3352C21.3645 21.9576 21.869 22.462 22.4913 22.462H47.4609C48.0832 22.462 48.5878 21.9576 48.5878 21.3352V2.82984C48.5878 2.20746 48.0832 1.703 47.4609 1.703Z"
            fill="#002162"></path>
        <path
            d="M31.0782 7.95806C30.7818 7.58207 30.2368 7.51778 29.8609 7.81404L25.9795 10.8744C26.3501 11.1166 26.6752 11.4411 26.9241 11.842C26.9947 11.9554 27.056 12.0721 27.1104 12.1905L30.9343 9.17538C31.3103 8.87902 31.3747 8.33394 31.0782 7.95806Z"
            fill="#002162"></path>
        <path
            d="M12.3435 6.48678C14.1348 6.48678 15.5869 5.03467 15.5869 3.24339C15.5869 1.45212 14.1348 0 12.3435 0C10.5522 0 9.1001 1.45212 9.1001 3.24339C9.1001 5.03467 10.5522 6.48678 12.3435 6.48678Z"
            fill="#002162"></path>
        <path
            d="M25.5948 12.6677C25.1388 11.9335 24.1742 11.7078 23.4398 12.1636L20.2705 14.1314C20.2572 11.5031 20.2643 12.8979 20.2558 11.2053C20.2456 9.17354 18.5843 7.52051 16.5525 7.52051H15.0129C13.6975 10.9318 14.1213 9.6655 13.0048 12.561L13.4743 10.5165C13.5068 10.3633 13.4832 10.2037 13.4078 10.0666L12.7716 8.90947L13.3362 7.88278C13.4204 7.72962 13.3094 7.54194 13.1346 7.54194H11.5836C11.4089 7.54194 11.2977 7.72962 11.382 7.88278L11.9477 8.91161L11.3103 10.0708C11.2364 10.2054 11.2122 10.3618 11.2421 10.5123L11.6488 12.561C11.4296 11.9924 9.91374 8.06123 9.70523 7.52051H8.13447C6.10271 7.52051 4.44136 9.17343 4.4311 11.2053L4.37331 22.7021C4.36904 23.5664 5.06607 24.2706 5.93036 24.2749C5.9331 24.2749 5.93564 24.2749 5.93839 24.2749C6.79892 24.2749 7.49879 23.5794 7.50305 22.7179L7.56084 11.221C7.56084 11.2192 7.56084 11.2174 7.56084 11.2156C7.56328 11.045 7.70293 10.9083 7.87355 10.9096C8.04418 10.9109 8.18169 11.0496 8.18169 11.2202L8.1824 27.5089C9.61504 27.4479 10.9425 27.9647 11.9383 28.8722V22.5176H12.7491V29.807C13.3201 30.6468 13.6544 31.6598 13.6544 32.7497C13.6544 33.7427 13.3769 34.6721 12.8958 35.4646C13.39 35.4669 13.87 35.5325 14.3277 35.6536C14.9448 35.1182 15.6871 34.7242 16.5049 34.5226C16.5049 6.15196 16.4709 23.6933 16.4709 11.2224C16.4709 11.0417 16.6171 10.8952 16.7977 10.8949C16.9784 10.8945 17.1252 11.0404 17.126 11.221C17.1315 12.3186 17.1487 15.7497 17.1547 16.9442C17.1576 17.5108 17.4665 18.0317 17.9624 18.3058C18.4575 18.5794 19.0629 18.5652 19.5451 18.2658L25.0908 14.8225C25.8249 14.3668 26.0507 13.4019 25.5948 12.6677Z"
            fill="#002162"></path>
        <path
            d="M43.5928 36.2206C45.4888 36.2206 47.0259 34.6835 47.0259 32.7875C47.0259 30.8914 45.4888 29.3544 43.5928 29.3544C41.6967 29.3544 40.1597 30.8914 40.1597 32.7875C40.1597 34.6835 41.6967 36.2206 43.5928 36.2206Z"
            fill="#002162"></path>
        <path
            d="M51.945 41.2151C51.9341 39.0644 50.1757 37.3147 48.0249 37.3147C47.0969 37.3147 40.2469 37.3147 39.4143 37.3147C39.7837 38.0325 39.9937 38.8451 39.9937 39.7065C39.9937 40.6211 39.7494 41.5766 39.2319 42.4265C41.1519 42.5041 42.8341 43.5346 43.8174 45.0567H47.9387V41.2552C47.9387 41.0681 48.0869 40.9148 48.2739 40.9084C48.4609 40.902 48.6194 41.045 48.632 41.2315V41.2318L48.6513 45.0567H51.9644L51.945 41.2151Z"
            fill="#002162"></path>
        <path
            d="M29.5006 39.7063C29.5006 38.83 29.7177 38.0039 30.0992 37.277C27.8639 37.277 25.2392 37.277 22.4549 37.277C22.8075 37.9817 23.0071 38.7756 23.0071 39.6159C23.0071 40.6031 22.7298 41.538 22.2485 42.3307C23.8286 42.3382 25.2865 42.9947 26.3398 44.0844C27.3609 43.0868 28.7528 42.4681 30.284 42.4599C29.7524 41.6015 29.5006 40.6377 29.5006 39.7063Z"
            fill="#002162"></path>
        <path
            d="M26.8956 29.3164C24.9996 29.3164 23.4624 30.8532 23.4624 32.7495C23.4624 34.6414 24.9967 36.1826 26.8956 36.1826C28.7763 36.1826 30.3287 34.6627 30.3287 32.7495C30.3287 30.8554 28.7946 29.3164 26.8956 29.3164Z"
            fill="#002162"></path>
        <path
            d="M12.5142 39.6158C12.5142 38.7778 12.7129 37.9855 13.0638 37.2819C12.9158 37.2746 13.5383 37.277 3.97549 37.277C1.83578 37.277 0.0662558 39.0175 0.0553886 41.1774L0.0358887 45.0566C1.54988 45.0566 1.85446 45.0566 3.34895 45.0566L3.36835 41.1941C3.36937 41.0028 3.52486 40.8486 3.716 40.8491C3.90714 40.8497 4.06172 41.0047 4.06172 41.1958V45.0566H8.70586C9.70675 43.4566 11.4277 42.452 13.3008 42.3748C12.7924 41.556 12.5142 40.6112 12.5142 39.6158Z"
            fill="#002162"></path>
        <path
            d="M8.40796 29.3164C6.512 29.3164 4.97485 30.8535 4.97485 32.7495C4.97485 34.637 6.50296 36.1826 8.40796 36.1826C10.2905 36.1826 11.8412 34.6577 11.8412 32.7495C11.8412 30.8533 10.304 29.3164 8.40796 29.3164Z"
            fill="#002162"></path>
        <path
            d="M42.9135 48.121C42.9028 45.9701 41.1443 44.2204 38.9935 44.2204C38.7654 44.2204 30.5669 44.2204 30.3092 44.2204C28.1585 44.2204 26.2872 45.97 26.2764 48.1208L26.2484 48.0303C26.2378 45.8881 24.4872 44.1299 22.3284 44.1299C19.8357 44.1299 16.2555 44.1299 13.6441 44.1299C11.4934 44.1299 9.62216 45.8795 9.6113 48.0303L9.5918 51.9999H12.9049L12.9243 48.0469C12.9251 47.8822 13.059 47.7494 13.2237 47.7498C13.3883 47.7502 13.5214 47.8838 13.5214 48.0485V52C15.4634 52 20.4767 52 22.2956 52V48.0485C22.2956 47.8721 22.4383 47.7291 22.6146 47.7286C22.7908 47.7282 22.9344 47.8705 22.9354 48.0468L22.9548 51.9999C23.6321 51.9999 28.8695 51.9999 29.5699 51.9999L29.5893 48.1374V48.1372C29.5902 47.9726 29.7242 47.8399 29.8888 47.8403C30.0535 47.8407 30.1865 47.9743 30.1865 48.139V51.9999C32.1285 51.9999 37.1418 51.9999 38.9607 51.9999V48.139C38.9607 47.9626 39.1034 47.8196 39.2797 47.8191C39.4559 47.8187 39.5995 47.961 39.6004 48.1373L39.6198 51.9998H42.9329L42.9135 48.121Z"
            fill="#002162"></path>
        <path
            d="M17.8682 43.0757C19.7865 43.0757 21.3415 41.5207 21.3415 39.6025C21.3415 37.6843 19.7865 36.1293 17.8682 36.1293C15.95 36.1293 14.395 37.6843 14.395 39.6025C14.395 41.5207 15.95 43.0757 17.8682 43.0757Z"
            fill="#002162"></path>
        <path
            d="M34.7415 43.1659C36.6597 43.1659 38.2148 41.6109 38.2148 39.6927C38.2148 37.7745 36.6597 36.2195 34.7415 36.2195C32.8233 36.2195 31.2683 37.7745 31.2683 39.6927C31.2683 41.6109 32.8233 43.1659 34.7415 43.1659Z"
            fill="#002162"></path>
    </g>
    <defs>
        <clipPath id="clip0_1670_7204_hero">
            <rect width="52" height="52" fill="white"></rect>
        </clipPath>
    </defs>
</svg>